<svg xmlns="http://www.w3.org/2000/svg" viewBox="0 0 1000 1000"><g transform="matrix(1 0 0 -1 0 1000)" fill="#b8383d"><path d="M659 469Q669 436 692 350L713 272L841 288V491ZM441 447 209 422V209L481 244ZM634 653Q622 628 612 619L631 556L838 581L822 605Q802 633 780 657Q749 690 719 709Q681 733 644 744Q655 703 634 653ZM409 553Q356 558 322 597L209 509L416 534Q414 538 412.5 544.0Q411 550 409 553ZM556 616Q554 623 554.5 628.0Q555 633 559 638Q572 656 578 669Q600 718 575 756Q548 801 494 791Q487 791 485.0 785.0Q483 779 488 772L516 716V713Q517 711 516.5 710.0Q516 709 513 709Q475 684 459 675Q455 670 450 675Q438 688 419 713Q415 716 409 721L403 725L398 726Q393 726 391 722Q378 701 375 675Q371 645 384 625Q408 588 450 588Q456 588 460.0 586.0Q464 584 466 578L480 515Q539 268 544 237Q546 223 555.0 213.5Q564 204 575 206L585 208Q605 210 614 213Q630 218 641 228Q658 245 653 269Q646 282 579 531Z"/></g></svg>