<svg xmlns="http://www.w3.org/2000/svg" viewBox="0 0 1000 1000"><g transform="matrix(1 0 0 -1 0 1000)" fill="#519aba"><path d="M513 563Q449 563 402 566Q344 570 294 581Q282 583 260 592Q248 598 241 600Q228 604 228 619V728Q228 733 230.5 737.0Q233 741 237 741L247 745Q281 760 300 763Q352 775 416 779Q454 781 531 781Q636 781 719 759Q738 755 759 744Q772 740 772 725V616Q772 609 763 600Q738 588 725 584L681 577Q623 568 594 566Q580 564 552.5 564.0Q525 564 513 563ZM772 556V444Q772 439 766.5 433.5Q761 428 756 428L740 422Q710 412 697 409Q580 389 428 394H426Q376 397 350 400Q308 405 275 416Q262 419 238 431Q228 436 228 447V556Q290 535 364 527Q417 522 500 522Q575 519 636 526Q708 534 772 556ZM772 381V272Q772 267 766.5 261.5Q761 256 756 253Q731 244 719 240Q698 233 681 231Q490 203 303 234Q287 237 255 248L241 253Q234 255 231.0 260.0Q228 265 228 275V381Q288 360 362 352Q415 347 500 347Q583 347 636 352Q710 360 772 381Z"/></g></svg>