<svg xmlns="http://www.w3.org/2000/svg" viewBox="0 0 1000 1000"><g transform="matrix(1 0 0 -1 0 1000)" fill="#cc3e44"><path d="M659 428H556L544 400L541 393Q537 383 537 378Q538 364 547 359Q549 357 561 356L575 353V344H478V353Q497 359 503 366Q514 377 528 409L631 641H634L738 403Q752 370 763 359Q775 353 784 353V344H644V353H656Q669 353 681 359Q688 366 687 369V378L681 394ZM653 447 609 547 566 447ZM209 300Q230 300 245.5 322.0Q261 344 272 375L409 716H428L569 388Q581 358 598 325L603 316Q611 300 638 300V284H434V300Q462 300 475 306Q484 311 484 325Q484 330 481 340L478 347Q472 359 469 369L453 406H313L294 356Q284 333 284 322Q284 308 303 303Q309 300 334 300V284H209ZM444 431 384 575H378L322 431Z"/></g></svg>