<svg xmlns="http://www.w3.org/2000/svg" viewBox="0 0 1000 1000"><g transform="matrix(1 0 0 -1 0 1000)" fill="#519aba"><path d="M90 542Q87 542 88 544L98 556Q99 558 103 558H261Q264 558 263 556L255 544Q253 541 251 541ZM23 501Q20 501 21 503L31 515Q32 517 36 517H238Q241 517 240 515L237 504Q236 501 233 501ZM130 460Q127 460 129 463L135 474Q137 476 140 476H228Q231 476 231 473L230 463Q230 460 227 460ZM592 550Q576 546 550 539L516 530Q512 529 510.0 529.5Q508 530 504 535Q493 547 483 552Q443 571 403 545Q357 515 357 460Q358 434 374.5 414.0Q391 394 417 391Q462 385 493 420L505 436H419Q412 436 410.0 440.0Q408 444 411 450Q423 478 433 498Q437 505 444 505H606V493Q605 477 604 469Q596 420 567 382Q518 317 440 307Q372 298 321 336Q272 373 264 435Q256 505 302 565Q350 628 427 642Q494 654 544 620Q579 597 596 557Q600 552 592 550ZM739 304Q674 305 630 343Q590 378 582 429Q571 501 618 563Q642 595 672.0 612.5Q702 630 743 637Q817 650 870.5 614.0Q924 578 932 516Q943 428 881 365Q838 321 774 308Q766 307 751 305ZM844 484Q844 485 844 488Q844 495 843 498Q837 531 810.5 548.0Q784 565 752 557Q689 543 675 480Q669 454 680.5 430.5Q692 407 716 396Q752 380 788 399Q841 426 844 484Z"/></g></svg>