<svg xmlns="http://www.w3.org/2000/svg" viewBox="0 0 1000 1000"><g transform="matrix(1 0 0 -1 0 1000)" fill="#cc6d2e"><path d="M703 778H297Q264 778 241.5 755.5Q219 733 219 700V300Q219 267 241.5 244.5Q264 222 297 222H700Q733 222 755.5 244.5Q778 267 778 300V700Q780 733 758.0 755.5Q736 778 703 778ZM372 284Q339 284 315.0 308.5Q291 333 291.0 365.5Q291 398 315.0 422.5Q339 447 372.0 447.0Q405 447 429.0 422.5Q453 398 453.0 365.0Q453 332 429.5 308.0Q406 284 372 284ZM494 488H294V541H491V488ZM494 566H294V619H491V566ZM494 644H294V694H491V644ZM706 416H509V469H706ZM706 491H509V544H706ZM706 569H509V622H706ZM706 644H509V697H706Z"/></g></svg>