<svg xmlns="http://www.w3.org/2000/svg" viewBox="0 0 1000 1000"><g transform="matrix(1 0 0 -1 0 1000)" fill="#519aba"><path d="M488 516H425Q392 516 372.5 496.5Q353 477 353 444V388Q353 378 344 378H316Q272 378 253 416Q238 447 238 472Q232 534 247 575Q263 623 306 631H487Q497 631 497 634V650L493 652Q489 653 488 653H381Q374 653 371.5 656.0Q369 659 369 666V706Q369 741 397 750Q428 763 444 766Q504 776 556 763Q582 757 600 744Q611 733 615 724Q621 713 619 700V588Q619 555 601.0 537.0Q583 519 550 519Q528 516 488 516ZM400 703Q400 693 407.0 685.5Q414 678 424.0 678.0Q434 678 442.0 686.0Q450 694 450.0 703.0Q450 712 442.5 719.0Q435 726 425 728Q414 728 407.0 720.5Q400 713 400 703ZM513 484H575Q608 484 627.5 503.5Q647 523 647 556V613Q647 622 656 622H684Q728 622 747 584Q763 553 763 528Q768 466 753 425Q737 377 694 369H513Q503 369 503 366V350L507 348Q511 347 513 347H619Q626 347 628.5 344.0Q631 341 631 334V294Q631 259 603 250Q572 238 556 234Q496 224 444 238Q418 243 400 256Q389 267 385 276Q379 287 381 300V413Q381 445 399.0 463.0Q417 481 450 481Q472 484 513 484ZM600 297Q600 307 593.0 314.5Q586 322 576.0 322.0Q566 322 558.0 314.0Q550 306 550.0 297.0Q550 288 557.5 281.0Q565 274 575 272Q586 272 593.0 279.5Q600 287 600 297Z"/></g></svg>