<svg xmlns="http://www.w3.org/2000/svg" viewBox="0 0 1000 1000"><g transform="matrix(1 0 0 -1 0 1000)" fill="#b8383d"><path d="M675 781V650L672 647Q671 644 669 644Q655 630 634 625Q611 617 560 606L547 603Q491 593 400 581Q350 575 325 569V700Q328 703 338 703Q410 715 456 719L491 724Q538 731 562 736Q601 743 631 753L635 755Q650 761 657 765Q669 772 675 781ZM675 606V475L669 469Q655 458 625 446L619 444Q569 431 544 428Q528 425 498.5 420.5Q469 416 453 413L412 407Q355 400 325 394V525Q328 528 334 528Q361 531 414.0 539.0Q467 547 494 550Q566 560 628 578Q645 584 654 589Q666 596 675 606ZM328 219H325V350Q328 353 334 353Q353 356 389.0 361.0Q425 366 444 369L477 374Q527 381 551 385Q592 393 625 403Q644 409 652 414Q667 421 675 431V300Q673 296 666 290L659 284Q636 273 600 263Q567 254 498 243L484 241Q403 228 363 225Q352 225 334 220Z"/></g></svg>