<svg xmlns="http://www.w3.org/2000/svg" viewBox="0 0 1000 1000"><g transform="matrix(1 0 0 -1 0 1000)" fill="#e37933"><path d="M781 519V534Q772 593 744 644Q716 686 678 719Q647 745 609 759Q485 807 369 747Q302 709 263 647Q241 613 230 580Q219 545 219 506V472Q228 399 263 344Q300 290 344 263Q379 239 409 231Q478 210 534 219Q690 242 756 384Q786 444 781 519ZM569 369Q552 360 531 358Q519 356 494 356Q446 356 394 388Q385 392 391 397L409 434L413 437L416 438Q451 411 500 406Q519 406 528 409Q544 413 550 431Q550 448 534 456Q516 466 478 478L474 479Q453 485 443 490Q425 498 416 509Q400 525 400 559Q402 595 425 616Q445 636 478 641Q540 650 594 616Q597 613 597 606L578 572Q577 569 576.0 568.5Q575 568 573 568L569 569Q548 581 530 587Q510 593 488 591Q484 591 478.0 589.5Q472 588 469 588Q461 582 457.0 576.5Q453 571 453 562Q453 546 466.5 537.0Q480 528 494 528Q504 525 526 519L553 512Q556 516 566 516Q556 516 553 513L577 503Q578 502 578 500H580Q581 499 581 497L585 494Q587 493 587 491L591 487Q605 475 609.5 451.0Q614 427 604 405Q594 380 569 369Z"/></g></svg>