<svg xmlns="http://www.w3.org/2000/svg" viewBox="0 0 1000 1000"><g transform="matrix(1 0 0 -1 0 1000)" fill="#cc6d2e"><path d="M488 631H381V313H303V631H197V688H484V631ZM728 409Q728 420 724.0 428.0Q720 436 713 444Q707 449 695 455Q687 458 667 466L659 469Q594 488 556 516Q522 545 522 588Q522 635 563 663Q600 691 661.5 691.0Q723 691 763 656Q800 623 800 575H728Q728 589 723.5 599.0Q719 609 709 619Q689 634 659.0 634.0Q629 634 613.0 622.0Q597 610 597 588Q597 570 616 556Q624 550 640 544Q652 539 678 531Q739 513 771.0 485.5Q803 458 803 409Q803 385 793.5 365.5Q784 346 766 334Q728 306 666 306Q600 306 559 338Q512 375 516 428H591Q591 396 613 378Q622 371 637.0 367.0Q652 363 669 363Q703 363 716 375Q728 394 728 409Z"/></g></svg>