<svg xmlns="http://www.w3.org/2000/svg" viewBox="0 0 1000 1000"><g transform="matrix(1 0 0 -1 0 1000)" fill="#498ba7"><path d="M375 244Q367 248 363 256Q360 259 359.5 259.0Q359 259 357.0 256.0Q355 253 353.5 247.0Q352 241 350 237Q343 214 330.0 206.0Q317 198 294 203Q288 203 275 209Q256 219 266 237Q266 239 267.5 242.0Q269 245 269 247Q252 247 247 262Q235 294 239.0 318.5Q243 343 266 366L268 370Q272 377 272 381Q272 415 279 440Q287 470 306 494Q322 515 344 528Q348 530 348.5 533.0Q349 536 347 541Q330 562 325 591Q323 599 326 609Q328 616 334 628L338 637Q344 644 347 644Q356 646 371 657L378 662Q409 694 456 694Q461 694 463.5 695.5Q466 697 466 700Q470 719 484 737L494 747Q499 752 504.5 751.5Q510 751 513 744Q519 733 528 713L534 700Q539 692 544 697Q556 702 560.0 702.5Q564 703 566.0 700.0Q568 697 572 684Q596 584 541 497Q539 494 534.5 487.5Q530 481 528.0 477.0Q526 473 526.5 470.0Q527 467 531 462Q552 444 566.0 419.0Q580 394 584 366Q589 331 584 297Q582 288 584.0 286.5Q586 285 594 287Q629 298 656 316L664 320Q682 331 692 335Q707 342 722 344H731Q741 346 747.5 343.5Q754 341 758.5 335.0Q763 329 763 322Q763 308 747 303Q706 295 662.5 263.5Q619 232 559 216Q557 216 553.0 214.0Q549 212 547 209Q540 204 532 202Q527 200 516 199L506 197L498 196Q438 191 406 191Q388 191 375 194Q357 200 353 212Q348 231 363 241Q366 241 370.0 242.5Q374 244 375 244Z"/></g></svg>